Coordinates
version=1
nRows=12
nColumns=42
inDegrees=yes

Units are S.I. units (second, meters, Newtons, ...)
If the header above contains a line with 'inDegrees', this indicates whether rotational values are in degrees (yes) or radians (no).

endheader
time	pelvis_tilt	pelvis_list	pelvis_rotation	pelvis_tx	pelvis_ty	pelvis_tz	hip_flexion_r	hip_adduction_r	hip_rotation_r	knee_angle_r	knee_adduction_r	knee_angle_r_beta	ankle_angle_r	subtalar_angle_r	mtp_angle_r	hip_flexion_l	hip_adduction_l	hip_rotation_l	knee_angle_l	knee_adduction_l	knee_angle_l_beta	ankle_angle_l	subtalar_angle_l	mtp_angle_l	lumbar_extension	lumbar_bending	lumbar_rotation	arm_flex_r	arm_add_r	arm_rot_r	elbow_flex_r	pro_sup_r	wrist_flex_r	wrist_dev_r	arm_flex_l	arm_add_l	arm_rot_l	elbow_flex_l	pro_sup_l	wrist_flex_l	wrist_dev_l
      0.50000000	      0.79209702	      4.71165624	     10.79300073	     -0.06093626	      0.89213995	      0.37974651	     20.92039369	    -18.53516317	    -20.05551873	     63.39151548	     -0.15586357	      1.10639066	     10.18752646	     -5.22062781	     -9.46097952	      5.47023356	     -1.38914137	     -4.95084404	      3.13835043	      6.82727107	      0.05477455	      5.94556685	     32.31826153	     -9.46097952	    -19.53719349	     -7.06759547	     -3.71868260	     -6.18883021	    -21.90450719	    -19.83127103	     96.87089066	     90.00000001	      0.00000000	      0.00000000	     -0.12305823	    -25.14843682	     13.19375550	     90.47618303	     90.00000001	      0.00000000	      0.00000000
      0.51000000	      0.48142623	      4.77954594	     10.89897037	     -0.05833609	      0.89184603	      0.38020116	     22.13242516	    -18.67590781	    -20.01398356	     60.91588383	     -0.19700598	      1.06318274	     11.53378424	     -5.29138445	     -9.41386038	      5.60755464	     -1.35418611	     -4.92054017	      3.10928793	      6.88175335	      0.05426731	      6.09240917	     32.32230391	     -9.41386038	    -19.58721585	     -6.93004419	     -3.80697120	     -6.24627230	    -21.28012078	    -19.68971858	     94.95786026	     90.00000001	      0.00000000	      0.00000000	      0.67114863	    -25.74161204	     13.59991035	     90.02484524	     90.00000001	      0.00000000	      0.00000000
      0.52000000	      0.19040367	      4.79533991	     10.91321554	     -0.05553569	      0.89159848	      0.38094094	     23.09160719	    -18.61532695	    -19.95334841	     57.89860177	     -0.13556384	      1.01052123	     12.67130955	     -4.89710186	     -9.36438382	      5.71124401	     -1.43551515	     -4.96005789	      3.10021475	      7.00258361	      0.05410895	      6.24408190	     32.36229646	     -9.36438382	    -19.60936639	     -6.76528779	     -3.70835898	     -6.28010082	    -20.68721255	    -19.57792345	     93.04339006	     90.00000001	      0.00000000	      0.00000000	      1.49683813	    -26.29337173	     14.02051690	     89.57693739	     90.00000001	      0.00000000	      0.00000000
      0.53000000	     -0.08488211	      4.81924090	     10.89507838	     -0.05259610	      0.89131777	      0.38188464	     23.79572127	    -18.40909333	    -19.86058595	     54.47844548	     -0.01046186	      0.95082824	     13.44168852	     -4.15230025	     -9.32048770	      5.80069771	     -1.51209025	     -5.03909051	      3.12079317	      7.08188089	      0.05446812	      6.42595072	     32.38312649	     -9.32048770	    -19.60553557	     -6.63781608	     -3.56537500	     -6.25008098	    -20.14480771	    -19.37858475	     91.07832300	     90.00000001	      0.00000000	      0.00000000	      2.30085892	    -26.77130678	     14.40464691	     89.18308989	     90.00000001	      0.00000000	      0.00000000
      0.54000000	      0.24852396	      4.67330437	     10.89202884	     -0.04891332	      0.89197787	      0.38307094	     23.34455904	    -17.73029992	    -20.66250999	     50.40992523	     -0.38133347	      0.87981917	     14.18981546	     -2.06242623	     -9.22338062	      5.13028014	     -2.10178609	     -5.28352958	      2.99787362	      7.52904422	      0.05232277	      6.56288908	     32.82939519	     -9.22338062	    -20.15688926	     -6.19350886	     -3.32020945	     -6.23821019	    -19.72672013	    -19.10607135	     89.30439158	     90.00000001	      0.00000000	      0.00000000	      3.13307716	    -27.16393193	     14.79305693	     88.84174954	     90.00000001	      0.00000000	      0.00000000
      0.55000000	     -0.28044205	      4.90328752	     10.93933307	     -0.04580532	      0.89113680	      0.38410719	     23.95739367	    -17.68372770	    -20.24961447	     46.85627205	      0.01563273	      0.81779622	     14.11897379	     -1.14130197	     -9.18602437	      5.50307125	     -1.80210493	     -5.17739855	      3.10004086	      7.37888897	      0.05410592	      6.79998724	     32.69894802	     -9.18602437	    -19.82579775	     -6.34629190	     -3.26855107	     -6.12020587	    -19.22747546	    -18.69842574	     87.27328966	     90.00000001	      0.00000000	      0.00000000	      3.77508239	    -27.61485040	     15.00997009	     88.63289550	     90.00000001	      0.00000000	      0.00000000
      0.56000000	     -0.39892120	      5.00534058	     11.05568178	     -0.04221926	      0.89092749	      0.38533851	     23.73812514	    -17.35206211	    -20.15362227	     43.09497815	      0.38146747	      0.75214926	     13.99602069	      0.23314523	     -9.13786405	      5.32166201	     -1.91282286	     -4.97306750	      2.98332416	      7.60732160	      0.05206883	      7.10317445	     32.75821750	     -9.13786405	    -19.84450946	     -6.28623421	     -3.21465017	     -5.89453802	    -18.85066633	    -18.12847078	     85.11198254	     90.00000001	      0.00000000	      0.00000000	      4.44382013	    -28.02207261	     15.24334743	     88.40209437	     90.00000001	      0.00000000	      0.00000000
      0.57000000	     -0.30643599	      5.11993360	     11.31683569	     -0.03839185	      0.89102957	      0.38646048	     23.05455906	    -16.94115629	    -20.46205739	     39.41636285	      0.41245717	      0.68794531	     13.64098963	      1.89398045	     -9.07126473	      4.94956525	     -1.98552002	     -4.76698909	      2.96207012	      7.67642919	      0.05169788	      7.30476809	     32.76432370	     -9.07126473	    -20.07916063	     -6.14392385	     -3.29296406	     -5.71302038	    -18.52025168	    -17.48578105	     83.28211020	     90.00000001	      0.00000000	      0.00000000	      5.04686419	    -28.36601526	     15.33624240	     88.38266313	     90.00000001	      0.00000000	      0.00000000
      0.58000000	     -0.66645256	      5.44095107	     11.61997738	     -0.03488594	      0.89033190	      0.38756040	     22.97136630	    -16.96466275	    -20.19568542	     36.49968455	      0.80981215	      0.63703967	     13.09141490	      2.96755037	     -9.03773035	      5.13837810	     -1.61143556	     -4.39802367	      3.08134792	      7.52884521	      0.05377967	      7.53646845	     32.73355607	     -9.03773035	    -19.83204474	     -6.33807211	     -3.38939315	     -5.50054631	    -18.13117038	    -16.91257396	     81.40886415	     90.00000001	      0.00000000	      0.00000000	      5.68125454	    -28.74636003	     15.52442393	     88.37772563	     90.00000001	      0.00000000	      0.00000000
      0.59000000	     -0.48738839	      5.60769240	     12.15065900	     -0.03094771	      0.89060746	      0.38857859	     21.99838080	    -16.71212812	    -20.75309875	     33.72381139	      0.81199734	      0.58859155	     12.65276881	      4.34610503	     -8.97348440	      4.71528359	     -1.59368643	     -3.83010783	      3.09278848	      7.53385707	      0.05397934	      7.80389199	     32.66519668	     -8.97348440	    -20.11964715	     -6.18923131	     -3.70739672	     -5.21728062	    -17.85280180	    -16.12017069	     79.66129490	     90.00000001	      0.00000000	      0.00000000	      6.23901533	    -29.04495265	     15.50420018	     88.48924226	     90.00000001	      0.00000000	      0.00000000
      0.60000000	     -0.79296989	      5.94441505	     12.66980940	     -0.02733774	      0.89012690	      0.38962167	     21.78242582	    -16.83511283	    -20.64776626	     31.86818575	      1.03017395	      0.55620477	     12.27381196	      5.06380484	     -8.94889708	      4.90922242	     -1.15712856	     -3.34931318	      3.33130114	      7.27749007	      0.05814217	      8.00127761	     32.63200178	     -8.94889708	    -19.89088372	     -6.36114716	     -3.96030514	     -5.02116552	    -17.49286921	    -15.58019189	     78.01060717	     90.00000001	      0.00000000	      0.00000000	      6.88936327	    -29.34762787	     15.68395679	     88.55837612	     90.00000001	      0.00000000	      0.00000000
      0.61000000	     -0.85430319	      6.16645104	     13.37364230	     -0.02364190	      0.89020367	      0.39057651	     21.17338165	    -16.87012105	    -21.00351692	     30.40477072	      1.12275183	      0.53066336	     12.04745847	      5.67596847	     -8.92306733	      4.88705248	     -0.89095540	     -2.64491096	      3.58215735	      7.03934192	      0.06252044	      8.30508232	     32.59291842	     -8.92306733	    -19.91664323	     -6.31489818	     -4.39039780	     -4.74705017	    -17.19464323	    -14.92946196	     76.29827034	     90.00000001	      0.00000000	      0.00000000	      7.49509091	    -29.59808234	     15.78334280	     88.67578725	     90.00000001	      0.00000000	      0.00000000
